<svg xmlns="http://www.w3.org/2000/svg" version="1.1" xmlns:xlink="http://www.w3.org/1999/xlink" xmlns:svgjs="http://svgjs.dev/svgjs" viewBox="0 0 1920 1080"><rect width="1920" height="1080" fill="#2052b3"></rect><g transform="matrix(0.8131727983645296,0.8131727983645296,-0.8131727983645296,0.8131727983645296,606.3119798804898,-626.8521423532022)"><path d="M0,-1080C12.411762063145844,-984.5136082215761,61.65161582896605,-672.9005335537101,74.47057237887506,-507.08164932945675C87.28952892878407,-341.26276510520336,86.98062660207763,-208.41678048893496,76.91373929945405,-85.08669465447954C66.84685199683047,38.24339117997587,47.18496260930085,100.18110200906557,14.069248563133527,232.89886567727578C-19.046465483033792,365.616629345486,-102.63257508458659,533.8779895107008,-121.78054497754985,711.2198873547818C-140.9285148705131,888.5617851988628,-124.23903110990773,1144.0354643571902,-100.81857079464606,1296.9502527417621C-77.3981104793844,1449.865041126334,1.93912178157915,1484.8669931191741,18.74221691402016,1628.7086176622138C35.54531204646118,1772.5502422052534,3.1237028190033604,2071.4514362770356,0,2160L 1920 2160 L 1920 -1080 Z" fill="url(&quot;#SvgjsLinearGradient1018&quot;)"></path><path d="M320,-1080C309.6054617002035,-984.0475815803176,264.4239734420141,-708.9494181806733,257.632770201221,-504.2854894819054C250.84156696042788,-299.6215607831375,258.6001689118831,-72.05551561049603,279.25278055524143,147.98357219260726C299.90539219859977,368.02265999571057,389.600316180911,587.7663565497464,381.5484400613709,815.9490373367144C373.4965639418308,1044.1317181236823,241.1995971815627,1293.0711631372005,230.94152383800088,1517.0796569144147C220.68345049443906,1741.088150691629,305.1569206396668,2052.846609485736,320,2160L 1920 2160 L 1920 -1080 Z" fill="url(&quot;#SvgjsLinearGradient1019&quot;)"></path><path d="M640,-1080C660.4213980286968,-1021.6358299542825,752.5920520803602,-896.6151447915768,762.5283881721807,-729.8149797256949C772.4647242640012,-563.014814659813,729.1193193674976,-267.1832421685613,699.6180165509229,-79.1990096047086C670.1167137343482,108.78522295914411,577.9903791682901,260.82551830378117,585.5205712727322,398.09041565742143C593.0507633771743,535.3553130110618,723.6544579621532,625.122865234564,744.7991691775755,744.390374517133C765.9438803929979,863.657883799702,720.1737624081385,944.3799244385596,712.3888385652668,1113.6954713528353C704.6039147223952,1283.011018267111,710.1544325478899,1585.8995678949266,698.0896261203454,1760.2836560027874C686.024819692801,1934.6677441106483,649.6816043533909,2093.380609333798,640,2160L 1920 2160 L 1920 -1080 Z" fill="url(&quot;#SvgjsLinearGradient1020&quot;)"></path><path d="M960,-1080C959.0707536516973,-978.8896343920792,973.0185801589457,-656.1600863781429,954.4245219101838,-473.3378063524748C935.8304636614218,-290.5155263268067,863.0829358029196,-152.62009316796136,848.435650507428,16.9336801540083C833.7883652119365,186.48745347597796,863.1526794820544,362.6630573209261,866.5408101372343,543.9848335793432C869.9289407924142,725.3066098377603,854.8921847666061,936.7552602549711,868.7644344385077,1104.8643377045107C882.6366841104093,1272.9734151540504,934.5683805750616,1376.783354560666,949.7743081686436,1552.639298276581C964.9802357622257,1728.495241992496,958.2957180281073,2058.7732163794303,960,2160L 1920 2160 L 1920 -1080 Z" fill="url(&quot;#SvgjsLinearGradient1021&quot;)"></path><path d="M1280,-1080C1300.3440104380454,-988.7123877990613,1405.7500813626204,-722.9102686491319,1402.0640626282727,-532.2743267943675C1398.378043893925,-341.63838493960316,1273.4017167242223,-97.9765827506381,1257.8838875939136,63.81565112858604C1242.366058463605,225.60788500781018,1311.3400355113592,265.7661098027877,1308.95708784642,438.47907648097737C1306.574140181481,611.192043159167,1232.7287958019472,888.6530032108908,1243.5862016042784,1100.0934511977239C1254.4436074066095,1311.533899184557,1368.0325562611204,1530.47067293493,1374.1015226604072,1707.121764401976C1380.170489059694,1883.772855869022,1295.683587110068,2084.520294066996,1280,2160L 1920 2160 L 1920 -1080 Z" fill="url(&quot;#SvgjsLinearGradient1022&quot;)"></path><path d="M1600,-1080C1615.4480352616165,-992.5669781700539,1677.8178536219762,-767.1127357257565,1692.688211569699,-555.4018690203229C1707.5585695174218,-343.6910023148894,1685.3622619465468,-34.26644870403533,1689.2221476863374,190.26520023260102C1693.082033426128,414.79684916923736,1750.410150813299,557.0360084487426,1715.8475260084424,791.7880245994952C1681.2849012035858,1026.5400407502477,1501.1543198586053,1370.741967903699,1481.8463988571982,1598.7772971371166C1462.5384778557911,1826.8126263705342,1580.3077331428663,2066.4628828561863,1600,2160L 1920 2160 L 1920 -1080 Z" fill="url(&quot;#SvgjsLinearGradient1023&quot;)"></path></g><defs><linearGradient x1="0.1" y1="0" x2="0" y2="1" id="SvgjsLinearGradient1018"><stop stop-color="#2052b3" offset="0"></stop><stop stop-color="#206ab3" offset="0"></stop></linearGradient><linearGradient x1="0.1" y1="0" x2="0" y2="1" id="SvgjsLinearGradient1019"><stop stop-color="#336cdb" offset="0"></stop><stop stop-color="#3388db" offset="0.16666666666666666"></stop></linearGradient><linearGradient x1="0.1" y1="0" x2="0" y2="1" id="SvgjsLinearGradient1020"><stop stop-color="#6590e4" offset="0"></stop><stop stop-color="#65a5e4" offset="0.3333333333333333"></stop></linearGradient><linearGradient x1="0.1" y1="0" x2="0" y2="1" id="SvgjsLinearGradient1021"><stop stop-color="#97b4ec" offset="0"></stop><stop stop-color="#97c2ec" offset="0.5"></stop></linearGradient><linearGradient x1="0.1" y1="0" x2="0" y2="1" id="SvgjsLinearGradient1022"><stop stop-color="#c9d8f5" offset="0"></stop><stop stop-color="#c9dff5" offset="0.6666666666666666"></stop></linearGradient><linearGradient x1="0.1" y1="0" x2="0" y2="1" id="SvgjsLinearGradient1023"><stop stop-color="#fbfcfe" offset="0"></stop><stop stop-color="#fbfcfe" offset="0.8333333333333334"></stop></linearGradient></defs></svg>